<?xml version="1.0" encoding="utf-8"?>
<!-- Generator: Adobe Illustrator 22.0.0, SVG Export Plug-In . SVG Version: 6.00 Build 0)  -->
<svg version="1.1" id="Layer_1" xmlns="http://www.w3.org/2000/svg" xmlns:xlink="http://www.w3.org/1999/xlink" x="0px" y="0px" width="148" height="48"
	 viewBox="0 0 130 42" style="enable-background:new 0 0 130 42;" xml:space="preserve">
<style type="text/css">
	.st0{fill:url(#SVGID_1_);}
	.st1{fill:url(#SVGID_2_);}
	.st2{opacity:0.15;}
	.st3{fill:#FFFFFF;}
	.st4{fill:#833AB4;}
	.st5{fill:#414042;}
	.st6{fill:url(#SVGID_3_);}
	.st7{fill:url(#SVGID_4_);}
	.st8{fill:url(#SVGID_5_);}
	.st9{fill:url(#SVGID_6_);}
	.st10{fill:url(#SVGID_7_);}
	.st11{fill:url(#SVGID_8_);}
	.st12{fill:url(#SVGID_9_);}
	.st13{fill:url(#SVGID_10_);}
	.st14{fill:url(#SVGID_11_);}
	.st15{fill:url(#SVGID_12_);}
	.st16{fill:url(#SVGID_13_);}
	.st17{fill:url(#SVGID_14_);}
	.st18{fill:url(#SVGID_15_);}
	.st19{opacity:0.1;}
	.st20{fill:url(#SVGID_16_);}
	.st21{fill:url(#SVGID_17_);}
	.st22{fill:url(#SVGID_18_);}
	.st23{fill:url(#SVGID_19_);}
	.st24{fill:url(#SVGID_20_);}
	.st25{fill:url(#SVGID_21_);}
	.st26{fill:url(#SVGID_22_);}
	.st27{fill:#C52661;}
	.st28{fill:#F15A29;}
	.st29{fill:#60B846;}
	.st30{fill:#1B75BC;}
	.st31{fill:#2397E5;}
</style>
<g>
	<g>
		<linearGradient id="SVGID_1_" gradientUnits="userSpaceOnUse" x1="26.3976" y1="-14.978" x2="1.5754" y2="28.0152">
			<stop  offset="0" style="stop-color:#00AEEF"/>
			<stop  offset="1" style="stop-color:#1B75BC"/>
		</linearGradient>
		<path class="st0" d="M2.3,1l14.2,24.7L29.7,5.1C30.8,3.3,29.5,1,27.4,1L2.3,1z"/>
		<linearGradient id="SVGID_2_" gradientUnits="userSpaceOnUse" x1="43.093" y1="-4.2388" x2="18.3446" y2="38.6266">
			<stop  offset="0" style="stop-color:#00AEEF"/>
			<stop  offset="1" style="stop-color:#1B75BC"/>
		</linearGradient>
		<path class="st1" d="M33.8,1h-2.2c0,0,1.5,1.2,0.4,3.1L21.9,21.7c-2.4,4.1-2.4,9.2,0,13.3l3.5,6L48.5,1H33.8z"/>
	</g>
	<g class="st19">
		<path class="st3" d="M27.4,1H2.3l8.4,14.5c1.8,0.2,3.6,0.3,5.4,0.3c2.4,0,4.8-0.2,7.1-0.6l6.5-10.2C30.8,3.3,29.5,1,27.4,1z"/>
		<path class="st3" d="M48.5,1H33.8h-2.2c0,0,1.5,1.2,0.4,3.1l-6.1,10.6C34.8,12.6,42.7,7.7,48.5,1z"/>
	</g>
</g>
<g>
	<polygon class="st5" points="59.4,25 56.4,15.4 53.6,15.4 58.4,29.9 60.5,29.9 65.3,15.4 62.5,15.4 	"/>
	<path class="st5" d="M69.6,19.2c0.2-0.4,0.5-0.7,0.8-0.9c0.4-0.2,0.8-0.3,1.3-0.3c0.4,0,0.7,0.1,1.1,0.3c0.3,0.2,0.6,0.4,0.8,0.8
		c0.2,0.3,0.4,0.7,0.5,1.2h2.8c-0.2-1.1-0.5-2-1-2.7c-0.5-0.7-1.1-1.3-1.8-1.7c-0.7-0.4-1.5-0.6-2.4-0.6c-1.1,0-2,0.2-2.8,0.6
		c-0.8,0.4-1.4,1-1.8,1.8c-0.4,0.8-0.6,1.8-0.6,2.9v4c0,1.1,0.2,2.1,0.6,2.9c0.4,0.8,1,1.4,1.8,1.8c0.8,0.4,1.2,0.6,1.2,0.6
		s0.6,0,1.7,0c0.9,0,1.7-0.2,2.4-0.6c0.7-0.4,1.3-1,1.8-1.7c0.5-0.7,0.8-1.6,1-2.7h-2.8c-0.1,0.5-0.3,0.9-0.5,1.2
		c-0.2,0.3-0.5,0.6-0.8,0.8c-0.3,0.2-0.7,0.3-1.1,0.3c-0.5,0-0.9-0.1-1.3-0.3c-0.4-0.2-0.6-0.5-0.8-0.9c-0.2-0.4-0.3-0.9-0.3-1.4v-4
		C69.3,20.1,69.4,19.6,69.6,19.2z"/>
	<polygon class="st5" points="80.2,15.4 79.2,15.4 79.2,29.9 80.2,29.9 81.9,29.9 88.9,29.9 88.9,27.2 81.9,27.2 81.9,24 87.8,24 
		87.8,21.4 81.9,21.4 81.9,18 88.9,18 88.9,15.4 81.9,15.4 	"/>
	<linearGradient id="SVGID_3_" gradientUnits="userSpaceOnUse" x1="100.6844" y1="11.1286" x2="92.223" y2="25.7843">
		<stop  offset="0" style="stop-color:#2397E5"/>
		<stop  offset="1" style="stop-color:#1B75BC"/>
	</linearGradient>
	<path class="st6" d="M99.6,15.9c-0.7-0.4-1.5-0.6-2.4-0.6h-3.1h-1.5h-1.2v14.5h2.7v-5.6h3.1c0.9,0,1.7-0.2,2.4-0.5
		c0.7-0.4,1.2-0.9,1.6-1.5c0.4-0.7,0.6-1.4,0.6-2.3c0-0.9-0.2-1.7-0.6-2.3C100.8,16.8,100.2,16.3,99.6,15.9z M98.7,20.8
		c-0.1,0.3-0.3,0.5-0.6,0.6c-0.2,0.1-0.5,0.2-0.9,0.2h-3.1V18h3.1c0.3,0,0.6,0.1,0.9,0.2c0.2,0.1,0.4,0.4,0.6,0.6
		c0.1,0.3,0.2,0.6,0.2,0.9C98.9,20.2,98.8,20.5,98.7,20.8z"/>
	<linearGradient id="SVGID_4_" gradientUnits="userSpaceOnUse" x1="111.9464" y1="18.0882" x2="103.4852" y2="32.7434">
		<stop  offset="0" style="stop-color:#2397E5"/>
		<stop  offset="1" style="stop-color:#1B75BC"/>
	</linearGradient>
	<path class="st7" d="M112.3,23.5c0.6-0.4,1.1-0.9,1.4-1.5c0.3-0.7,0.5-1.4,0.5-2.3c0-0.9-0.2-1.6-0.5-2.3c-0.3-0.7-0.8-1.2-1.4-1.5
		c-0.6-0.4-1.3-0.5-2.1-0.5h-3.6h-1.6h-1.1v14.5h2.7V24h1.7l3.3,5.8h3.3l-3.5-6C111.7,23.8,112,23.7,112.3,23.5z M106.6,18h3.4
		c0.3,0,0.5,0.1,0.7,0.2c0.2,0.1,0.4,0.3,0.5,0.6c0.1,0.3,0.2,0.6,0.2,0.9c0,0.3-0.1,0.6-0.2,0.9c-0.1,0.3-0.3,0.5-0.5,0.6
		c-0.2,0.1-0.5,0.2-0.7,0.2h-3.4V18z"/>
	<linearGradient id="SVGID_5_" gradientUnits="userSpaceOnUse" x1="121.0234" y1="23.8294" x2="112.5215" y2="38.5552">
		<stop  offset="0" style="stop-color:#2397E5"/>
		<stop  offset="1" style="stop-color:#1B75BC"/>
	</linearGradient>
	<path class="st8" d="M126.3,17.8c-0.4-0.8-1.1-1.4-1.9-1.9c-0.8-0.4-1.7-0.7-2.8-0.7c-1,0-2,0.2-2.8,0.7c-0.8,0.4-1.4,1.1-1.9,1.9
		c-0.4,0.8-0.7,1.7-0.7,2.8v4.1c0,1.1,0.2,2,0.7,2.8c0.4,0.8,1.1,1.4,1.9,1.9c0.8,0.4,1.7,0.7,2.8,0.7c1,0,2-0.2,2.8-0.7
		c0.8-0.4,1.4-1.1,1.9-1.9c0.4-0.8,0.7-1.7,0.7-2.8v-4.1C127,19.5,126.8,18.6,126.3,17.8z M124.2,24.7c0,0.5-0.1,0.9-0.3,1.3
		c-0.2,0.4-0.5,0.7-0.9,0.9c-0.4,0.2-0.8,0.3-1.3,0.3c-0.5,0-0.9-0.1-1.3-0.3c-0.4-0.2-0.7-0.5-0.9-0.9c-0.2-0.4-0.3-0.8-0.3-1.3
		v-4.2c0-0.5,0.1-0.9,0.3-1.3c0.2-0.4,0.5-0.7,0.9-0.9c0.4-0.2,0.8-0.3,1.3-0.3c0.5,0,0.9,0.1,1.3,0.3c0.4,0.2,0.7,0.5,0.9,0.9
		c0.2,0.4,0.3,0.8,0.3,1.3V24.7z"/>
</g>
</svg>
